<svg x="0" y="0" width="39.44908294866974" height="39.47750675353229" filtersec="colorsb707621841" class="image-svg-svg primary" style="overflow: visible;"><svg xmlns="http://www.w3.org/2000/svg" viewBox="0 0 360.2901306152344 360.5489501953125"><g><g fill-rule="evenodd"><path d="M214.6 357.22A180.45 180.45 0 0 1 14.92 252.75c-6.45-14.68-19.87-56.36 3.94-56.36 63.33 0 93.67 151.06 195.74 160.83z" fill="#cd007e"></path><path d="M305.92 51.28a179.72 179.72 0 0 1 54.37 129c0 52.43-18.48 122.12-79.66 122.12-55.17 0-139-56.19-139-106S262 184.14 305.92 51.28z" fill="#63176a"></path><path d="M180 0c14.92 0 60 4.44 60 22.56C240 77.4 61.59 76 0 170.6 5 75.55 83.72 0 180 0z" fill="#f5a400"></path></g></g></svg></svg>